<mxfile host="app.diagrams.net" agent="Mozilla/5.0 (Windows NT 10.0; Win64; x64; rv:133.0) Gecko/20100101 Firefox/133.0" version="25.0.3">
  <diagram id="C5RBs43oDa-KdzZeNtuy" name="Page-1">
    <mxGraphModel dx="1142" dy="1085" grid="1" gridSize="10" guides="1" tooltips="1" connect="1" arrows="1" fold="1" page="1" pageScale="1" pageWidth="827" pageHeight="1169" math="0" shadow="0">
      <root>
        <mxCell id="WIyWlLk6GJQsqaUBKTNV-0" />
        <mxCell id="WIyWlLk6GJQsqaUBKTNV-1" parent="WIyWlLk6GJQsqaUBKTNV-0" />
        <mxCell id="KiJ6XRheen4GXO749P8N-3" style="edgeStyle=orthogonalEdgeStyle;rounded=0;orthogonalLoop=1;jettySize=auto;html=1;exitX=0.5;exitY=1;exitDx=0;exitDy=0;entryX=0.5;entryY=0;entryDx=0;entryDy=0;" edge="1" parent="WIyWlLk6GJQsqaUBKTNV-1" source="WIyWlLk6GJQsqaUBKTNV-3" target="WIyWlLk6GJQsqaUBKTNV-6">
          <mxGeometry relative="1" as="geometry">
            <mxPoint x="102" y="155" as="targetPoint" />
          </mxGeometry>
        </mxCell>
        <mxCell id="WIyWlLk6GJQsqaUBKTNV-3" value="Load Image" style="rounded=1;whiteSpace=wrap;html=1;fontSize=12;glass=0;strokeWidth=1;shadow=0;" parent="WIyWlLk6GJQsqaUBKTNV-1" vertex="1">
          <mxGeometry x="42" y="103" width="120" height="40" as="geometry" />
        </mxCell>
        <mxCell id="WIyWlLk6GJQsqaUBKTNV-4" value="Yes" style="rounded=0;html=1;jettySize=auto;orthogonalLoop=1;fontSize=11;endArrow=block;endFill=0;endSize=8;strokeWidth=1;shadow=0;labelBackgroundColor=none;edgeStyle=orthogonalEdgeStyle;exitX=0.5;exitY=1;exitDx=0;exitDy=0;entryX=0.5;entryY=0;entryDx=0;entryDy=0;" parent="WIyWlLk6GJQsqaUBKTNV-1" target="KiJ6XRheen4GXO749P8N-5" edge="1">
          <mxGeometry y="20" relative="1" as="geometry">
            <mxPoint as="offset" />
            <mxPoint x="102" y="239" as="sourcePoint" />
            <mxPoint x="102" y="304" as="targetPoint" />
          </mxGeometry>
        </mxCell>
        <mxCell id="KiJ6XRheen4GXO749P8N-21" style="edgeStyle=orthogonalEdgeStyle;rounded=0;orthogonalLoop=1;jettySize=auto;html=1;exitX=1;exitY=0.5;exitDx=0;exitDy=0;" edge="1" parent="WIyWlLk6GJQsqaUBKTNV-1" source="WIyWlLk6GJQsqaUBKTNV-6" target="KiJ6XRheen4GXO749P8N-18">
          <mxGeometry relative="1" as="geometry" />
        </mxCell>
        <mxCell id="KiJ6XRheen4GXO749P8N-22" value="No" style="edgeLabel;html=1;align=center;verticalAlign=middle;resizable=0;points=[];" vertex="1" connectable="0" parent="KiJ6XRheen4GXO749P8N-21">
          <mxGeometry x="0.3455" y="5" relative="1" as="geometry">
            <mxPoint as="offset" />
          </mxGeometry>
        </mxCell>
        <mxCell id="WIyWlLk6GJQsqaUBKTNV-6" value="&lt;font style=&quot;font-size: 10px;&quot;&gt;Color AnalysisRun Color Analysis&lt;/font&gt;" style="rhombus;whiteSpace=wrap;html=1;shadow=0;fontFamily=Helvetica;fontSize=12;align=center;strokeWidth=1;spacing=6;spacingTop=-4;" parent="WIyWlLk6GJQsqaUBKTNV-1" vertex="1">
          <mxGeometry x="42" y="175" width="120" height="100" as="geometry" />
        </mxCell>
        <mxCell id="WIyWlLk6GJQsqaUBKTNV-9" value="Yes" style="edgeStyle=orthogonalEdgeStyle;rounded=0;html=1;jettySize=auto;orthogonalLoop=1;fontSize=11;endArrow=block;endFill=0;endSize=8;strokeWidth=1;shadow=0;labelBackgroundColor=none;" parent="WIyWlLk6GJQsqaUBKTNV-1" target="WIyWlLk6GJQsqaUBKTNV-12" edge="1">
          <mxGeometry y="10" relative="1" as="geometry">
            <mxPoint as="offset" />
            <mxPoint x="270" y="380" as="sourcePoint" />
          </mxGeometry>
        </mxCell>
        <mxCell id="KiJ6XRheen4GXO749P8N-1" style="edgeStyle=orthogonalEdgeStyle;rounded=0;orthogonalLoop=1;jettySize=auto;html=1;exitX=0.5;exitY=1;exitDx=0;exitDy=0;" edge="1" parent="WIyWlLk6GJQsqaUBKTNV-1" source="KiJ6XRheen4GXO749P8N-0" target="WIyWlLk6GJQsqaUBKTNV-3">
          <mxGeometry relative="1" as="geometry" />
        </mxCell>
        <mxCell id="KiJ6XRheen4GXO749P8N-0" value="start" style="rounded=1;whiteSpace=wrap;html=1;fontSize=12;glass=0;strokeWidth=1;shadow=0;" vertex="1" parent="WIyWlLk6GJQsqaUBKTNV-1">
          <mxGeometry x="42" y="24" width="120" height="40" as="geometry" />
        </mxCell>
        <mxCell id="KiJ6XRheen4GXO749P8N-10" style="edgeStyle=orthogonalEdgeStyle;rounded=0;orthogonalLoop=1;jettySize=auto;html=1;exitX=0.5;exitY=1;exitDx=0;exitDy=0;" edge="1" parent="WIyWlLk6GJQsqaUBKTNV-1" source="KiJ6XRheen4GXO749P8N-5">
          <mxGeometry relative="1" as="geometry">
            <mxPoint x="102" y="454" as="targetPoint" />
          </mxGeometry>
        </mxCell>
        <mxCell id="KiJ6XRheen4GXO749P8N-5" value="Image Segmentation" style="rounded=1;whiteSpace=wrap;html=1;" vertex="1" parent="WIyWlLk6GJQsqaUBKTNV-1">
          <mxGeometry x="42" y="344" width="120" height="60" as="geometry" />
        </mxCell>
        <mxCell id="KiJ6XRheen4GXO749P8N-13" value="" style="edgeStyle=orthogonalEdgeStyle;rounded=0;orthogonalLoop=1;jettySize=auto;html=1;" edge="1" parent="WIyWlLk6GJQsqaUBKTNV-1" source="KiJ6XRheen4GXO749P8N-11" target="KiJ6XRheen4GXO749P8N-12">
          <mxGeometry relative="1" as="geometry" />
        </mxCell>
        <mxCell id="KiJ6XRheen4GXO749P8N-38" value="" style="edgeStyle=orthogonalEdgeStyle;rounded=0;orthogonalLoop=1;jettySize=auto;html=1;" edge="1" parent="WIyWlLk6GJQsqaUBKTNV-1" source="KiJ6XRheen4GXO749P8N-11" target="KiJ6XRheen4GXO749P8N-37">
          <mxGeometry relative="1" as="geometry" />
        </mxCell>
        <mxCell id="KiJ6XRheen4GXO749P8N-11" value="Cheque Number" style="rounded=0;whiteSpace=wrap;html=1;" vertex="1" parent="WIyWlLk6GJQsqaUBKTNV-1">
          <mxGeometry x="42" y="454" width="120" height="60" as="geometry" />
        </mxCell>
        <mxCell id="KiJ6XRheen4GXO749P8N-70" style="edgeStyle=orthogonalEdgeStyle;rounded=0;orthogonalLoop=1;jettySize=auto;html=1;exitX=1;exitY=0.5;exitDx=0;exitDy=0;entryX=0;entryY=0.5;entryDx=0;entryDy=0;" edge="1" parent="WIyWlLk6GJQsqaUBKTNV-1" source="KiJ6XRheen4GXO749P8N-12" target="KiJ6XRheen4GXO749P8N-14">
          <mxGeometry relative="1" as="geometry" />
        </mxCell>
        <mxCell id="KiJ6XRheen4GXO749P8N-12" value="Extract Cheque Number" style="rounded=0;whiteSpace=wrap;html=1;" vertex="1" parent="WIyWlLk6GJQsqaUBKTNV-1">
          <mxGeometry x="242" y="454" width="120" height="60" as="geometry" />
        </mxCell>
        <mxCell id="KiJ6XRheen4GXO749P8N-17" value="" style="edgeStyle=orthogonalEdgeStyle;rounded=0;orthogonalLoop=1;jettySize=auto;html=1;" edge="1" parent="WIyWlLk6GJQsqaUBKTNV-1" source="KiJ6XRheen4GXO749P8N-14" target="KiJ6XRheen4GXO749P8N-16">
          <mxGeometry relative="1" as="geometry" />
        </mxCell>
        <mxCell id="KiJ6XRheen4GXO749P8N-24" value="No" style="edgeLabel;html=1;align=center;verticalAlign=middle;resizable=0;points=[];" vertex="1" connectable="0" parent="KiJ6XRheen4GXO749P8N-17">
          <mxGeometry x="-0.125" relative="1" as="geometry">
            <mxPoint as="offset" />
          </mxGeometry>
        </mxCell>
        <mxCell id="KiJ6XRheen4GXO749P8N-42" style="edgeStyle=orthogonalEdgeStyle;rounded=0;orthogonalLoop=1;jettySize=auto;html=1;exitX=0.5;exitY=1;exitDx=0;exitDy=0;entryX=0.5;entryY=0;entryDx=0;entryDy=0;" edge="1" parent="WIyWlLk6GJQsqaUBKTNV-1" source="KiJ6XRheen4GXO749P8N-14" target="KiJ6XRheen4GXO749P8N-29">
          <mxGeometry relative="1" as="geometry" />
        </mxCell>
        <mxCell id="KiJ6XRheen4GXO749P8N-43" value="Yes" style="edgeLabel;html=1;align=center;verticalAlign=middle;resizable=0;points=[];" vertex="1" connectable="0" parent="KiJ6XRheen4GXO749P8N-42">
          <mxGeometry x="-0.7" y="-2" relative="1" as="geometry">
            <mxPoint as="offset" />
          </mxGeometry>
        </mxCell>
        <mxCell id="KiJ6XRheen4GXO749P8N-14" value="isValid" style="rhombus;whiteSpace=wrap;html=1;rounded=0;" vertex="1" parent="WIyWlLk6GJQsqaUBKTNV-1">
          <mxGeometry x="432" y="254" width="80" height="80" as="geometry" />
        </mxCell>
        <mxCell id="KiJ6XRheen4GXO749P8N-103" style="edgeStyle=orthogonalEdgeStyle;rounded=0;orthogonalLoop=1;jettySize=auto;html=1;exitX=1;exitY=0.5;exitDx=0;exitDy=0;entryX=0.5;entryY=0;entryDx=0;entryDy=0;" edge="1" parent="WIyWlLk6GJQsqaUBKTNV-1" source="KiJ6XRheen4GXO749P8N-16" target="KiJ6XRheen4GXO749P8N-96">
          <mxGeometry relative="1" as="geometry" />
        </mxCell>
        <mxCell id="KiJ6XRheen4GXO749P8N-16" value="Fault Detection" style="ellipse;whiteSpace=wrap;html=1;rounded=0;" vertex="1" parent="WIyWlLk6GJQsqaUBKTNV-1">
          <mxGeometry x="594" y="254" width="80" height="80" as="geometry" />
        </mxCell>
        <mxCell id="KiJ6XRheen4GXO749P8N-18" value="Fault Detection" style="ellipse;whiteSpace=wrap;html=1;rounded=0;" vertex="1" parent="WIyWlLk6GJQsqaUBKTNV-1">
          <mxGeometry x="272" y="185" width="80" height="80" as="geometry" />
        </mxCell>
        <mxCell id="KiJ6XRheen4GXO749P8N-27" style="edgeStyle=orthogonalEdgeStyle;rounded=0;orthogonalLoop=1;jettySize=auto;html=1;exitX=0.5;exitY=1;exitDx=0;exitDy=0;" edge="1" parent="WIyWlLk6GJQsqaUBKTNV-1" source="KiJ6XRheen4GXO749P8N-29" target="KiJ6XRheen4GXO749P8N-36">
          <mxGeometry relative="1" as="geometry">
            <mxPoint x="482" y="529" as="targetPoint" />
          </mxGeometry>
        </mxCell>
        <mxCell id="KiJ6XRheen4GXO749P8N-28" value="No" style="edgeLabel;html=1;align=center;verticalAlign=middle;resizable=0;points=[];" vertex="1" connectable="0" parent="KiJ6XRheen4GXO749P8N-27">
          <mxGeometry x="-0.3893" y="-3" relative="1" as="geometry">
            <mxPoint as="offset" />
          </mxGeometry>
        </mxCell>
        <mxCell id="KiJ6XRheen4GXO749P8N-31" style="edgeStyle=orthogonalEdgeStyle;rounded=0;orthogonalLoop=1;jettySize=auto;html=1;exitX=1;exitY=0.5;exitDx=0;exitDy=0;entryX=0;entryY=0.5;entryDx=0;entryDy=0;" edge="1" parent="WIyWlLk6GJQsqaUBKTNV-1" source="KiJ6XRheen4GXO749P8N-29" target="KiJ6XRheen4GXO749P8N-30">
          <mxGeometry relative="1" as="geometry" />
        </mxCell>
        <mxCell id="KiJ6XRheen4GXO749P8N-32" value="Yes" style="edgeLabel;html=1;align=center;verticalAlign=middle;resizable=0;points=[];" vertex="1" connectable="0" parent="KiJ6XRheen4GXO749P8N-31">
          <mxGeometry x="-0.05" y="-3" relative="1" as="geometry">
            <mxPoint as="offset" />
          </mxGeometry>
        </mxCell>
        <mxCell id="KiJ6XRheen4GXO749P8N-29" value="&lt;div&gt;&lt;font style=&quot;font-size: 11px;&quot;&gt;isDeactive/&amp;nbsp;&lt;/font&gt;&lt;/div&gt;&lt;div&gt;&lt;font style=&quot;font-size: 11px;&quot;&gt;isBlock/&lt;/font&gt;&lt;/div&gt;&lt;div&gt;&lt;font style=&quot;font-size: 11px;&quot;&gt;isAccepted&lt;br&gt;&lt;/font&gt;&lt;/div&gt;" style="rhombus;whiteSpace=wrap;html=1;rounded=0;" vertex="1" parent="WIyWlLk6GJQsqaUBKTNV-1">
          <mxGeometry x="412" y="384" width="120" height="80" as="geometry" />
        </mxCell>
        <mxCell id="KiJ6XRheen4GXO749P8N-99" style="edgeStyle=orthogonalEdgeStyle;rounded=0;orthogonalLoop=1;jettySize=auto;html=1;exitX=1;exitY=0.5;exitDx=0;exitDy=0;entryX=0.5;entryY=0;entryDx=0;entryDy=0;" edge="1" parent="WIyWlLk6GJQsqaUBKTNV-1" source="KiJ6XRheen4GXO749P8N-30" target="KiJ6XRheen4GXO749P8N-96">
          <mxGeometry relative="1" as="geometry" />
        </mxCell>
        <mxCell id="KiJ6XRheen4GXO749P8N-30" value="Fault Detection" style="ellipse;whiteSpace=wrap;html=1;rounded=0;" vertex="1" parent="WIyWlLk6GJQsqaUBKTNV-1">
          <mxGeometry x="595" y="384" width="80" height="80" as="geometry" />
        </mxCell>
        <mxCell id="KiJ6XRheen4GXO749P8N-36" value="Mark Accepted" style="rounded=1;whiteSpace=wrap;html=1;" vertex="1" parent="WIyWlLk6GJQsqaUBKTNV-1">
          <mxGeometry x="422" y="504" width="100" height="40" as="geometry" />
        </mxCell>
        <mxCell id="KiJ6XRheen4GXO749P8N-40" value="" style="edgeStyle=orthogonalEdgeStyle;rounded=0;orthogonalLoop=1;jettySize=auto;html=1;" edge="1" parent="WIyWlLk6GJQsqaUBKTNV-1" source="KiJ6XRheen4GXO749P8N-37" target="KiJ6XRheen4GXO749P8N-39">
          <mxGeometry relative="1" as="geometry" />
        </mxCell>
        <mxCell id="KiJ6XRheen4GXO749P8N-52" value="" style="edgeStyle=orthogonalEdgeStyle;rounded=0;orthogonalLoop=1;jettySize=auto;html=1;" edge="1" parent="WIyWlLk6GJQsqaUBKTNV-1" source="KiJ6XRheen4GXO749P8N-37" target="KiJ6XRheen4GXO749P8N-51">
          <mxGeometry relative="1" as="geometry" />
        </mxCell>
        <mxCell id="KiJ6XRheen4GXO749P8N-37" value="Signature" style="whiteSpace=wrap;html=1;rounded=0;" vertex="1" parent="WIyWlLk6GJQsqaUBKTNV-1">
          <mxGeometry x="43" y="579" width="120" height="60" as="geometry" />
        </mxCell>
        <mxCell id="KiJ6XRheen4GXO749P8N-47" value="" style="edgeStyle=orthogonalEdgeStyle;rounded=0;orthogonalLoop=1;jettySize=auto;html=1;" edge="1" parent="WIyWlLk6GJQsqaUBKTNV-1" source="KiJ6XRheen4GXO749P8N-39" target="KiJ6XRheen4GXO749P8N-46">
          <mxGeometry relative="1" as="geometry" />
        </mxCell>
        <mxCell id="KiJ6XRheen4GXO749P8N-39" value="Extract Signature" style="whiteSpace=wrap;html=1;rounded=0;" vertex="1" parent="WIyWlLk6GJQsqaUBKTNV-1">
          <mxGeometry x="243" y="579" width="120" height="60" as="geometry" />
        </mxCell>
        <mxCell id="KiJ6XRheen4GXO749P8N-49" value="" style="edgeStyle=orthogonalEdgeStyle;rounded=0;orthogonalLoop=1;jettySize=auto;html=1;" edge="1" parent="WIyWlLk6GJQsqaUBKTNV-1" source="KiJ6XRheen4GXO749P8N-46" target="KiJ6XRheen4GXO749P8N-48">
          <mxGeometry relative="1" as="geometry" />
        </mxCell>
        <mxCell id="KiJ6XRheen4GXO749P8N-50" value="&amp;lt;95" style="edgeLabel;html=1;align=center;verticalAlign=middle;resizable=0;points=[];" vertex="1" connectable="0" parent="KiJ6XRheen4GXO749P8N-49">
          <mxGeometry x="-0.175" y="2" relative="1" as="geometry">
            <mxPoint as="offset" />
          </mxGeometry>
        </mxCell>
        <mxCell id="KiJ6XRheen4GXO749P8N-46" value="Compare Signature" style="rhombus;whiteSpace=wrap;html=1;rounded=0;" vertex="1" parent="WIyWlLk6GJQsqaUBKTNV-1">
          <mxGeometry x="463" y="569" width="80" height="80" as="geometry" />
        </mxCell>
        <mxCell id="KiJ6XRheen4GXO749P8N-98" style="edgeStyle=orthogonalEdgeStyle;rounded=0;orthogonalLoop=1;jettySize=auto;html=1;exitX=1;exitY=0.5;exitDx=0;exitDy=0;entryX=0.5;entryY=0;entryDx=0;entryDy=0;" edge="1" parent="WIyWlLk6GJQsqaUBKTNV-1" source="KiJ6XRheen4GXO749P8N-48" target="KiJ6XRheen4GXO749P8N-96">
          <mxGeometry relative="1" as="geometry" />
        </mxCell>
        <mxCell id="KiJ6XRheen4GXO749P8N-48" value="Fault Detection" style="ellipse;whiteSpace=wrap;html=1;rounded=0;" vertex="1" parent="WIyWlLk6GJQsqaUBKTNV-1">
          <mxGeometry x="593" y="569" width="80" height="80" as="geometry" />
        </mxCell>
        <mxCell id="KiJ6XRheen4GXO749P8N-54" value="" style="edgeStyle=orthogonalEdgeStyle;rounded=0;orthogonalLoop=1;jettySize=auto;html=1;" edge="1" parent="WIyWlLk6GJQsqaUBKTNV-1" source="KiJ6XRheen4GXO749P8N-51" target="KiJ6XRheen4GXO749P8N-53">
          <mxGeometry relative="1" as="geometry" />
        </mxCell>
        <mxCell id="KiJ6XRheen4GXO749P8N-61" value="" style="edgeStyle=orthogonalEdgeStyle;rounded=0;orthogonalLoop=1;jettySize=auto;html=1;" edge="1" parent="WIyWlLk6GJQsqaUBKTNV-1" source="KiJ6XRheen4GXO749P8N-51" target="KiJ6XRheen4GXO749P8N-60">
          <mxGeometry relative="1" as="geometry" />
        </mxCell>
        <mxCell id="KiJ6XRheen4GXO749P8N-51" value="Payer Account Detail" style="whiteSpace=wrap;html=1;rounded=0;" vertex="1" parent="WIyWlLk6GJQsqaUBKTNV-1">
          <mxGeometry x="42" y="710" width="120" height="60" as="geometry" />
        </mxCell>
        <mxCell id="KiJ6XRheen4GXO749P8N-56" value="" style="edgeStyle=orthogonalEdgeStyle;rounded=0;orthogonalLoop=1;jettySize=auto;html=1;entryX=0;entryY=0.5;entryDx=0;entryDy=0;" edge="1" parent="WIyWlLk6GJQsqaUBKTNV-1" source="KiJ6XRheen4GXO749P8N-53" target="KiJ6XRheen4GXO749P8N-55">
          <mxGeometry relative="1" as="geometry">
            <mxPoint x="462" y="740" as="targetPoint" />
          </mxGeometry>
        </mxCell>
        <mxCell id="KiJ6XRheen4GXO749P8N-53" value="Extract Payer Information using barcode" style="whiteSpace=wrap;html=1;rounded=0;" vertex="1" parent="WIyWlLk6GJQsqaUBKTNV-1">
          <mxGeometry x="242" y="710" width="120" height="60" as="geometry" />
        </mxCell>
        <mxCell id="KiJ6XRheen4GXO749P8N-58" value="" style="edgeStyle=orthogonalEdgeStyle;rounded=0;orthogonalLoop=1;jettySize=auto;html=1;exitX=1;exitY=0.5;exitDx=0;exitDy=0;" edge="1" parent="WIyWlLk6GJQsqaUBKTNV-1" source="KiJ6XRheen4GXO749P8N-55" target="KiJ6XRheen4GXO749P8N-57">
          <mxGeometry relative="1" as="geometry">
            <mxPoint x="562" y="740" as="sourcePoint" />
          </mxGeometry>
        </mxCell>
        <mxCell id="KiJ6XRheen4GXO749P8N-59" value="No" style="edgeLabel;html=1;align=center;verticalAlign=middle;resizable=0;points=[];" vertex="1" connectable="0" parent="KiJ6XRheen4GXO749P8N-58">
          <mxGeometry x="-0.2571" relative="1" as="geometry">
            <mxPoint as="offset" />
          </mxGeometry>
        </mxCell>
        <mxCell id="KiJ6XRheen4GXO749P8N-84" style="edgeStyle=orthogonalEdgeStyle;rounded=0;orthogonalLoop=1;jettySize=auto;html=1;exitX=0.5;exitY=1;exitDx=0;exitDy=0;entryX=0.5;entryY=0;entryDx=0;entryDy=0;" edge="1" parent="WIyWlLk6GJQsqaUBKTNV-1" source="KiJ6XRheen4GXO749P8N-55" target="KiJ6XRheen4GXO749P8N-64">
          <mxGeometry relative="1" as="geometry" />
        </mxCell>
        <mxCell id="KiJ6XRheen4GXO749P8N-55" value="has Enough balance" style="rhombus;whiteSpace=wrap;html=1;rounded=0;" vertex="1" parent="WIyWlLk6GJQsqaUBKTNV-1">
          <mxGeometry x="456" y="695" width="100" height="90" as="geometry" />
        </mxCell>
        <mxCell id="KiJ6XRheen4GXO749P8N-97" value="" style="edgeStyle=orthogonalEdgeStyle;rounded=0;orthogonalLoop=1;jettySize=auto;html=1;" edge="1" parent="WIyWlLk6GJQsqaUBKTNV-1" source="KiJ6XRheen4GXO749P8N-57" target="KiJ6XRheen4GXO749P8N-96">
          <mxGeometry relative="1" as="geometry" />
        </mxCell>
        <mxCell id="KiJ6XRheen4GXO749P8N-57" value="Fault Detection" style="ellipse;whiteSpace=wrap;html=1;rounded=0;" vertex="1" parent="WIyWlLk6GJQsqaUBKTNV-1">
          <mxGeometry x="592" y="701" width="80" height="80" as="geometry" />
        </mxCell>
        <mxCell id="KiJ6XRheen4GXO749P8N-63" value="" style="edgeStyle=orthogonalEdgeStyle;rounded=0;orthogonalLoop=1;jettySize=auto;html=1;" edge="1" parent="WIyWlLk6GJQsqaUBKTNV-1" source="KiJ6XRheen4GXO749P8N-60" target="KiJ6XRheen4GXO749P8N-62">
          <mxGeometry relative="1" as="geometry" />
        </mxCell>
        <mxCell id="KiJ6XRheen4GXO749P8N-73" value="" style="edgeStyle=orthogonalEdgeStyle;rounded=0;orthogonalLoop=1;jettySize=auto;html=1;" edge="1" parent="WIyWlLk6GJQsqaUBKTNV-1" source="KiJ6XRheen4GXO749P8N-60" target="KiJ6XRheen4GXO749P8N-72">
          <mxGeometry relative="1" as="geometry" />
        </mxCell>
        <mxCell id="KiJ6XRheen4GXO749P8N-60" value="Receiver Detail" style="whiteSpace=wrap;html=1;rounded=0;" vertex="1" parent="WIyWlLk6GJQsqaUBKTNV-1">
          <mxGeometry x="42" y="843" width="120" height="60" as="geometry" />
        </mxCell>
        <mxCell id="KiJ6XRheen4GXO749P8N-65" value="" style="edgeStyle=orthogonalEdgeStyle;rounded=0;orthogonalLoop=1;jettySize=auto;html=1;" edge="1" parent="WIyWlLk6GJQsqaUBKTNV-1" source="KiJ6XRheen4GXO749P8N-62" target="KiJ6XRheen4GXO749P8N-64">
          <mxGeometry relative="1" as="geometry" />
        </mxCell>
        <mxCell id="KiJ6XRheen4GXO749P8N-62" value="Extract Account Number of receiver" style="whiteSpace=wrap;html=1;rounded=0;" vertex="1" parent="WIyWlLk6GJQsqaUBKTNV-1">
          <mxGeometry x="242" y="843" width="120" height="60" as="geometry" />
        </mxCell>
        <mxCell id="KiJ6XRheen4GXO749P8N-67" value="" style="edgeStyle=orthogonalEdgeStyle;rounded=0;orthogonalLoop=1;jettySize=auto;html=1;" edge="1" parent="WIyWlLk6GJQsqaUBKTNV-1" source="KiJ6XRheen4GXO749P8N-64" target="KiJ6XRheen4GXO749P8N-66">
          <mxGeometry relative="1" as="geometry" />
        </mxCell>
        <mxCell id="KiJ6XRheen4GXO749P8N-68" value="Yes" style="edgeLabel;html=1;align=center;verticalAlign=middle;resizable=0;points=[];" vertex="1" connectable="0" parent="KiJ6XRheen4GXO749P8N-67">
          <mxGeometry x="-0.175" y="2" relative="1" as="geometry">
            <mxPoint as="offset" />
          </mxGeometry>
        </mxCell>
        <mxCell id="KiJ6XRheen4GXO749P8N-64" value="Acc. Freeze" style="rhombus;whiteSpace=wrap;html=1;rounded=0;" vertex="1" parent="WIyWlLk6GJQsqaUBKTNV-1">
          <mxGeometry x="466" y="833" width="80" height="80" as="geometry" />
        </mxCell>
        <mxCell id="KiJ6XRheen4GXO749P8N-100" style="edgeStyle=orthogonalEdgeStyle;rounded=0;orthogonalLoop=1;jettySize=auto;html=1;exitX=1;exitY=0.5;exitDx=0;exitDy=0;entryX=0.5;entryY=1;entryDx=0;entryDy=0;" edge="1" parent="WIyWlLk6GJQsqaUBKTNV-1" source="KiJ6XRheen4GXO749P8N-66" target="KiJ6XRheen4GXO749P8N-96">
          <mxGeometry relative="1" as="geometry" />
        </mxCell>
        <mxCell id="KiJ6XRheen4GXO749P8N-66" value="Fault Detection" style="ellipse;whiteSpace=wrap;html=1;rounded=0;" vertex="1" parent="WIyWlLk6GJQsqaUBKTNV-1">
          <mxGeometry x="598" y="832" width="80" height="80" as="geometry" />
        </mxCell>
        <mxCell id="KiJ6XRheen4GXO749P8N-75" value="" style="edgeStyle=orthogonalEdgeStyle;rounded=0;orthogonalLoop=1;jettySize=auto;html=1;" edge="1" parent="WIyWlLk6GJQsqaUBKTNV-1" source="KiJ6XRheen4GXO749P8N-72" target="KiJ6XRheen4GXO749P8N-74">
          <mxGeometry relative="1" as="geometry" />
        </mxCell>
        <mxCell id="KiJ6XRheen4GXO749P8N-87" value="" style="edgeStyle=orthogonalEdgeStyle;rounded=0;orthogonalLoop=1;jettySize=auto;html=1;" edge="1" parent="WIyWlLk6GJQsqaUBKTNV-1" source="KiJ6XRheen4GXO749P8N-72" target="KiJ6XRheen4GXO749P8N-86">
          <mxGeometry relative="1" as="geometry" />
        </mxCell>
        <mxCell id="KiJ6XRheen4GXO749P8N-72" value="Amount Detail" style="whiteSpace=wrap;html=1;rounded=0;" vertex="1" parent="WIyWlLk6GJQsqaUBKTNV-1">
          <mxGeometry x="42" y="954" width="120" height="60" as="geometry" />
        </mxCell>
        <mxCell id="KiJ6XRheen4GXO749P8N-77" value="" style="edgeStyle=orthogonalEdgeStyle;rounded=0;orthogonalLoop=1;jettySize=auto;html=1;" edge="1" parent="WIyWlLk6GJQsqaUBKTNV-1" source="KiJ6XRheen4GXO749P8N-74" target="KiJ6XRheen4GXO749P8N-76">
          <mxGeometry relative="1" as="geometry" />
        </mxCell>
        <mxCell id="KiJ6XRheen4GXO749P8N-74" value="Extract amount " style="whiteSpace=wrap;html=1;rounded=0;" vertex="1" parent="WIyWlLk6GJQsqaUBKTNV-1">
          <mxGeometry x="242" y="954" width="120" height="60" as="geometry" />
        </mxCell>
        <mxCell id="KiJ6XRheen4GXO749P8N-81" value="" style="edgeStyle=orthogonalEdgeStyle;rounded=0;orthogonalLoop=1;jettySize=auto;html=1;" edge="1" parent="WIyWlLk6GJQsqaUBKTNV-1" source="KiJ6XRheen4GXO749P8N-76" target="KiJ6XRheen4GXO749P8N-80">
          <mxGeometry relative="1" as="geometry" />
        </mxCell>
        <mxCell id="KiJ6XRheen4GXO749P8N-76" value="Word != amount" style="rhombus;whiteSpace=wrap;html=1;rounded=0;" vertex="1" parent="WIyWlLk6GJQsqaUBKTNV-1">
          <mxGeometry x="462" y="944" width="80" height="80" as="geometry" />
        </mxCell>
        <mxCell id="KiJ6XRheen4GXO749P8N-101" style="edgeStyle=orthogonalEdgeStyle;rounded=0;orthogonalLoop=1;jettySize=auto;html=1;exitX=1;exitY=0.5;exitDx=0;exitDy=0;entryX=0.5;entryY=1;entryDx=0;entryDy=0;" edge="1" parent="WIyWlLk6GJQsqaUBKTNV-1" source="KiJ6XRheen4GXO749P8N-80" target="KiJ6XRheen4GXO749P8N-96">
          <mxGeometry relative="1" as="geometry" />
        </mxCell>
        <mxCell id="KiJ6XRheen4GXO749P8N-80" value="Fault Detection" style="ellipse;whiteSpace=wrap;html=1;rounded=0;" vertex="1" parent="WIyWlLk6GJQsqaUBKTNV-1">
          <mxGeometry x="592" y="944" width="80" height="80" as="geometry" />
        </mxCell>
        <mxCell id="KiJ6XRheen4GXO749P8N-89" value="" style="edgeStyle=orthogonalEdgeStyle;rounded=0;orthogonalLoop=1;jettySize=auto;html=1;" edge="1" parent="WIyWlLk6GJQsqaUBKTNV-1" source="KiJ6XRheen4GXO749P8N-86" target="KiJ6XRheen4GXO749P8N-88">
          <mxGeometry relative="1" as="geometry" />
        </mxCell>
        <mxCell id="KiJ6XRheen4GXO749P8N-86" value="Date" style="whiteSpace=wrap;html=1;rounded=0;" vertex="1" parent="WIyWlLk6GJQsqaUBKTNV-1">
          <mxGeometry x="43" y="1060" width="120" height="60" as="geometry" />
        </mxCell>
        <mxCell id="KiJ6XRheen4GXO749P8N-91" value="" style="edgeStyle=orthogonalEdgeStyle;rounded=0;orthogonalLoop=1;jettySize=auto;html=1;" edge="1" parent="WIyWlLk6GJQsqaUBKTNV-1" source="KiJ6XRheen4GXO749P8N-88" target="KiJ6XRheen4GXO749P8N-90">
          <mxGeometry relative="1" as="geometry" />
        </mxCell>
        <mxCell id="KiJ6XRheen4GXO749P8N-88" value="Extract Date" style="whiteSpace=wrap;html=1;rounded=0;" vertex="1" parent="WIyWlLk6GJQsqaUBKTNV-1">
          <mxGeometry x="243" y="1060" width="120" height="60" as="geometry" />
        </mxCell>
        <mxCell id="KiJ6XRheen4GXO749P8N-93" value="" style="edgeStyle=orthogonalEdgeStyle;rounded=0;orthogonalLoop=1;jettySize=auto;html=1;" edge="1" parent="WIyWlLk6GJQsqaUBKTNV-1" source="KiJ6XRheen4GXO749P8N-90" target="KiJ6XRheen4GXO749P8N-92">
          <mxGeometry relative="1" as="geometry" />
        </mxCell>
        <mxCell id="KiJ6XRheen4GXO749P8N-90" value="isExpire" style="rhombus;whiteSpace=wrap;html=1;rounded=0;" vertex="1" parent="WIyWlLk6GJQsqaUBKTNV-1">
          <mxGeometry x="463" y="1050" width="80" height="80" as="geometry" />
        </mxCell>
        <mxCell id="KiJ6XRheen4GXO749P8N-102" style="edgeStyle=orthogonalEdgeStyle;rounded=0;orthogonalLoop=1;jettySize=auto;html=1;exitX=1;exitY=0.5;exitDx=0;exitDy=0;entryX=0.5;entryY=1;entryDx=0;entryDy=0;" edge="1" parent="WIyWlLk6GJQsqaUBKTNV-1" source="KiJ6XRheen4GXO749P8N-92" target="KiJ6XRheen4GXO749P8N-96">
          <mxGeometry relative="1" as="geometry" />
        </mxCell>
        <mxCell id="KiJ6XRheen4GXO749P8N-92" value="Fault Detection" style="ellipse;whiteSpace=wrap;html=1;rounded=0;" vertex="1" parent="WIyWlLk6GJQsqaUBKTNV-1">
          <mxGeometry x="593" y="1050" width="80" height="80" as="geometry" />
        </mxCell>
        <mxCell id="KiJ6XRheen4GXO749P8N-96" value="Validate" style="whiteSpace=wrap;html=1;rounded=0;" vertex="1" parent="WIyWlLk6GJQsqaUBKTNV-1">
          <mxGeometry x="720" y="710" width="88" height="60" as="geometry" />
        </mxCell>
      </root>
    </mxGraphModel>
  </diagram>
</mxfile>
